<?xml version="1.0" encoding="utf-8"?>
<!-- Revolver Cylinder icon by Arthur Shlain from Usefulicons.com -->
<svg xmlns="http://www.w3.org/2000/svg" xmlns:xlink="http://www.w3.org/1999/xlink" xml:space="preserve" version="1.1" x="0px" y="0px" viewBox="0 0 100 100" width="400px" height="400px"><path fill="#222" d="M88.408,38.831C86.585,32.553,83.268,26.915,78.863,22.323C75.029,22.588,71.078,21.755,67.5,19.689C63.917,17.62,61.217,14.61,59.53,11.152C56.475,10.405,53.285,10,50,10S43.525,10.405,40.47,11.152C38.783,14.611,36.083,17.621,32.5,19.689C28.922,21.755,24.971,22.588,21.137,22.323C16.732,26.915,13.415,32.553,11.592,38.831C13.743,42.02,15,45.863,15,50S13.743,57.98,11.592,61.169C13.415,67.447,16.732,73.085,21.137,77.677C24.971,77.412,28.922,78.245,32.5,80.311C36.083,82.38,38.783,85.39,40.47,88.849C43.525,89.595,46.715,90,50,90S56.475,89.595,59.53,88.848C61.217,85.389,63.917,82.379,67.5,80.31C71.078,78.244,75.029,77.411,78.863,77.676C83.268,73.084,86.585,67.446,88.408,61.168C86.257,57.98,85,54.137,85,50S86.257,42.02,88.408,38.831ZM62.991,32.5C65.752,27.717,71.868,26.079,76.65,28.84C81.433,31.601,83.071,37.717,80.31,42.499C77.549,47.282,71.433,48.92,66.651,46.159C61.868,43.398,60.23,37.282,62.991,32.5ZM37.007,67.5C34.246,72.283,28.13,73.921,23.348,71.16C18.565,68.399,16.927,62.283,19.688,57.501C22.449,52.718,28.565,51.08,33.347,53.841C38.13,56.602,39.769,62.717,37.007,67.5ZM28.348,47.499C22.826,47.499,18.349,43.022,18.349,37.5S22.826,27.501,28.348,27.501S38.347,31.978,38.347,37.5C38.347,43.022,33.87,47.499,28.348,47.499ZM54.999,83.66C50.216,86.422,44.101,84.783,41.34,80C38.579,75.217,40.217,69.102,45,66.341C49.783,63.58,55.898,65.218,58.659,70.001C61.42,74.784,59.781,80.899,54.999,83.66ZM45,50C45,47.239,47.239,45,50,45S55,47.239,55,50S52.761,55,50,55S45,52.761,45,50ZM54.999,33.659C50.216,36.42,44.101,34.782,41.34,29.999C38.578,25.216,40.217,19.101,45,16.34C49.783,13.579,55.898,15.217,58.659,20C61.42,24.782,59.781,30.897,54.999,33.659ZM71.651,72.5C66.129,72.5,61.652,68.023,61.652,62.501S66.129,52.502,71.651,52.502C77.173,52.502,81.65,56.979,81.65,62.501C81.65,68.023,77.173,72.5,71.651,72.5Z"></path></svg>